<svg width="78" height="85" viewBox="0 0 78 85" fill="none" xmlns="http://www.w3.org/2000/svg">
<path d="M21.791 65.8604H57.5352" stroke="white" stroke-width="2"/>
<path d="M40.6641 23.3689H55.5013H59.5584V20.6738H19.0933V23.3689H23.1292H37.9664V61.1363H29.199V63.834H50.106V61.1363H40.6641V23.3689Z" fill="white" stroke="white"/>
<circle cx="60.2323" cy="22.6977" r="2.69767" fill="white"/>
<circle cx="18.4184" cy="22.7104" r="2.69767" fill="white"/>
<path d="M12.8896 43.779L19.093 31.2435L25.2965 43.779H12.8896Z" stroke="white"/>
<path fill-rule="evenodd" clip-rule="evenodd" d="M12.0796 44.2783C12.0797 47.6305 15.2199 50.3479 19.0935 50.3479C22.9672 50.3479 26.1074 47.6305 26.1075 44.2783H12.0796Z" fill="white"/>
<path d="M54.704 43.779L60.9075 31.2435L67.1109 43.779H54.704Z" stroke="white"/>
<path fill-rule="evenodd" clip-rule="evenodd" d="M53.8926 44.2783C53.8927 47.6305 57.0329 50.3479 60.9065 50.3479C64.7802 50.3479 67.9204 47.6305 67.9205 44.2783H53.8926Z" fill="white"/>
<path d="M1 17.9423L40.1051 1L77 17.9423V65.6887L40.1051 84L1 65.6887V17.9423Z" fill="#B4A1BB" fill-opacity="0.17"/>
<path d="M1 17.9423L40.1051 1L77 17.9423M1 17.9423L40.1051 36.2536M1 17.9423V65.6887L40.1051 84M77 17.9423L40.1051 36.2536M77 17.9423V65.6887L40.1051 84M40.1051 36.2536V84" stroke="#E220CF" stroke-opacity="0.9"/>
</svg>
