<svg width="78" height="85" viewBox="0 0 78 85" fill="none" xmlns="http://www.w3.org/2000/svg">
<path d="M1 17.9423L40.1051 1L77 17.9423V65.6887L40.1051 84L1 65.6887V17.9423Z" fill="#B4A1BB" fill-opacity="0.17"/>
<path d="M1 17.9423L40.1051 1L77 17.9423M1 17.9423L40.1051 36.2536M1 17.9423V65.6887L40.1051 84M77 17.9423L40.1051 36.2536M77 17.9423V65.6887L40.1051 84M40.1051 36.2536V84" stroke="#E220CF" stroke-opacity="0.9"/>
<path opacity="0.4" d="M39.1315 75.2629C57.4293 75.2629 72.2629 60.4293 72.2629 42.1315C72.2629 23.8334 57.4293 9 39.1315 9C20.8334 9 6 23.8334 6 42.1315C6 60.4293 20.8334 75.2629 39.1315 75.2629Z" fill="white"/>
<path d="M33.8529 53.747C33.1903 53.747 32.5608 53.4819 32.097 53.0181L22.7206 43.6419C21.7598 42.6811 21.7598 41.0908 22.7206 40.1299C23.6814 39.1691 25.2717 39.1691 26.2325 40.1299L33.8529 47.7502L50.8825 30.7206C51.8433 29.7598 53.4336 29.7598 54.3944 30.7206C55.3553 31.6814 55.3553 33.2717 54.3944 34.2325L35.6089 53.0181C35.1451 53.4819 34.5156 53.747 33.8529 53.747Z" fill="#3AE64B"/>
</svg>
