<svg width="78" height="85" viewBox="0 0 78 85" fill="none" xmlns="http://www.w3.org/2000/svg">
<path d="M24.4478 62.3826H53.5608V20.7348L50.326 17.5H26.8738L24.4478 20.7348V62.3826Z" fill="white" stroke="#0A040C" stroke-width="2"/>
<path d="M32.939 21.9473H28.4912V31.6516H49.5173V22.3516H34.9608" stroke="#0A040C"/>
<path d="M28.4912 35.291V40.1432" stroke="#0A040C" stroke-width="2"/>
<path d="M49.5176 35.291V39.7388" stroke="#0A040C" stroke-width="2"/>
<path d="M49.5176 41.7607V42.5694" stroke="#0A040C" stroke-width="2"/>
<path d="M39.0044 35.291L30.9175 48.2301M39.0044 35.291L47.0914 48.2301M39.0044 35.291V50.6562M39.0044 58.7432L30.9175 48.2301M39.0044 58.7432L47.0914 48.2301M39.0044 58.7432V50.6562M30.9175 48.2301L39.0044 50.6562M47.0914 48.2301L39.0044 50.6562" stroke="#0A040C"/>
<path d="M57.6043 62.3828H20V68.0437H57.6043V62.3828Z" fill="white" stroke="#0A040C" stroke-width="2"/>
<path d="M53.9653 22.3516C57.9582 23.4482 59.9034 24.5069 62.0523 28.4168C64.2602 29.0925 65.2755 29.7546 66.5001 31.6516C66.5001 31.6516 66.5001 51.0603 66.5001 54.6994C66.5001 58.3385 58.411 57.9197 58.4132 55.5081C58.4154 53.0965 58.4132 51.4646 58.4132 51.4646C58.346 49.4991 57.4159 48.8367 53.9653 49.0385" stroke="white"/>
<path d="M53.9653 49.0385V44.5907C59.7392 45.2371 61.557 47.0307 62.4566 52.6776V40.5472C59.856 40.6797 59.0027 40.1119 58.8175 37.7168V30.4385C57.2551 27.7832 56.1988 26.8585 53.9653 26.395V22.3516" stroke="white"/>
<path d="M59.2217 30.4397L62.0521 28.418" stroke="white"/>
<path d="M62.0522 40.5475H62.4565M66.5 40.5475H62.4565M58.8174 35.291H62.4565V40.5475" stroke="white" stroke-width="2"/>
<path d="M34.1523 31.6526V30.4395C34.4699 28.6408 35.0753 28.0128 36.9828 27.2047C38.7726 26.6497 39.7355 26.7835 41.4306 27.2047C43.1567 28.1084 43.6547 28.8073 43.8567 30.4395V31.6526" stroke="#0A040C"/>
<path d="M41.835 27.6088L45.0697 24.7783" stroke="#0A040C" stroke-width="2"/>
<path d="M11.3975 39.5L30.7792 67.7853" stroke="#F90B0B" stroke-width="3"/>
<path d="M31.1748 39.9043L11.0004 67.3823" stroke="#F90B0B" stroke-width="3"/>
<path d="M1 17.9423L40.1051 1L77 17.9423V65.6887L40.1051 84L1 65.6887V17.9423Z" fill="#B4A1BB" fill-opacity="0.17"/>
<path d="M1 17.9423L40.1051 1L77 17.9423M1 17.9423L40.1051 36.2536M1 17.9423V65.6887L40.1051 84M77 17.9423L40.1051 36.2536M77 17.9423V65.6887L40.1051 84M40.1051 36.2536V84" stroke="#E220CF" stroke-opacity="0.9"/>
</svg>
