<svg width="62" height="70" viewBox="0 0 62 70" fill="none" xmlns="http://www.w3.org/2000/svg">
<path d="M52.1931 11.0909C51.6911 10.432 50.7499 10.3048 50.0909 10.8069C49.432 11.3089 49.3048 12.2501 49.8069 12.9091L52.1931 11.0909ZM58.1817 21.426L56.9886 22.3351L58.1817 21.426ZM46 45H47V42H46V45ZM49.5 47.5V53H52.5V47.5H49.5ZM60.5 53V23.8502H57.5V53H60.5ZM59.3749 20.517L52.1931 11.0909L49.8069 12.9091L56.9886 22.3351L59.3749 20.517ZM60.5 23.8502C60.5 22.6459 60.1047 21.4749 59.3749 20.517L56.9886 22.3351C57.3203 22.7705 57.5 23.3028 57.5 23.8502H60.5ZM55 58.5C58.0376 58.5 60.5 56.0376 60.5 53H57.5C57.5 54.3807 56.3807 55.5 55 55.5V58.5ZM49.5 53C49.5 56.0376 51.9624 58.5 55 58.5V55.5C53.6193 55.5 52.5 54.3807 52.5 53H49.5ZM47 45C48.3807 45 49.5 46.1193 49.5 47.5H52.5C52.5 44.4624 50.0376 42 47 42V45Z" fill="white"/>
<rect x="56" y="23" width="6" height="11" rx="0.5" fill="white"/>
<path fill-rule="evenodd" clip-rule="evenodd" d="M15 25.7015H35C34.8398 20.3164 30.424 16 25 16C19.576 16 15.1602 20.3164 15 25.7015Z" fill="white"/>
<path d="M18.7668 11.3581C18.4123 10.9346 17.7816 10.8787 17.3581 11.2332C16.9346 11.5877 16.8787 12.2184 17.2332 12.6419L18.7668 11.3581ZM17.2332 12.6419L24.4858 21.3062L26.0194 20.0224L18.7668 11.3581L17.2332 12.6419Z" fill="white"/>
<path fill-rule="evenodd" clip-rule="evenodd" d="M2 4C2 1.79077 3.79089 0 6 0H44C46.2091 0 48 1.79077 48 4V66H49.5C49.6265 66 49.7421 66.0469 49.8301 66.1245C49.9342 66.2161 50 66.3503 50 66.5V69.5C50 69.7761 49.7761 70 49.5 70H44H6H0.5C0.377319 70 0.265015 69.9558 0.177979 69.8826C0.0690918 69.7908 0 69.6536 0 69.5V66.5C0 66.2239 0.223877 66 0.5 66H2V4ZM7 7C7 6.44775 7.44775 6 8 6H42C42.5522 6 43 6.44775 43 7V19C43 19.5522 42.5522 20 42 20H8C7.44775 20 7 19.5522 7 19V7Z" fill="url(#paint0_linear_501_90)"/>
<path d="M25.0819 61.1984L14.1464 46.0156L25.0819 52.6062V61.1984Z" fill="white"/>
<path d="M14 44.0631L25.0819 26V50.556L14 44.0631Z" fill="white"/>
<path d="M25.0818 61.1986L36.0173 46.0159L25.0818 52.6065V61.1986Z" fill="#D7D7D7"/>
<path d="M36.1639 44.0631L25.082 26V50.556L36.1639 44.0631Z" fill="#D7D7D7"/>
<defs>
<linearGradient id="paint0_linear_501_90" x1="25" y1="0" x2="25" y2="70" gradientUnits="userSpaceOnUse">
<stop stop-color="#00FFFF"/>
<stop offset="1" stop-color="#2563EB"/>
</linearGradient>
</defs>
</svg>
