<svg width="135" height="136" viewBox="0 0 135 136" fill="none" xmlns="http://www.w3.org/2000/svg">
<path d="M131 83.5C131 101.449 116.449 116 98.5 116C80.5507 116 66 101.449 66 83.5C66 65.5507 80.5507 51 98.5 51C116.449 51 131 65.5507 131 83.5Z" stroke="#C7C7CD" stroke-width="8"/>
<path fill-rule="evenodd" clip-rule="evenodd" d="M8.5 0.697937C4.08172 0.697937 0.5 4.27966 0.5 8.69794V127.788C0.5 132.207 4.08173 135.788 8.5 135.788H97C101.418 135.788 105 132.207 105 127.788V118.649C103.683 118.746 102.348 118.795 101 118.795C99.6516 118.795 98.3175 118.746 97 118.649V127.788L8.5 127.788V8.69794H65V29.9328C65 34.3511 68.5817 37.9328 73 37.9328H97V47.4778C98.3175 47.3814 99.6516 47.3321 101 47.3321C102.348 47.3321 103.683 47.3814 105 47.4778V33.9328C105 32.8092 104.527 31.7375 103.698 30.9797L71.698 1.7448C70.9608 1.07135 69.9985 0.697937 69 0.697937H8.5ZM90.6913 29.9328L73 13.7703V29.9328L90.6913 29.9328Z" fill="#C7C7CD"/>
<path d="M96 98.9999C96 100.105 96.8954 101 98 101C99.1046 101 100 100.105 100 98.9999H96ZM99.4142 67.5857C98.6332 66.8047 97.3668 66.8047 96.5858 67.5857L83.8579 80.3136C83.0768 81.0947 83.0768 82.361 83.8579 83.1421C84.6389 83.9231 85.9052 83.9231 86.6863 83.1421L98 71.8284L109.314 83.1421C110.095 83.9231 111.361 83.9231 112.142 83.1421C112.923 82.361 112.923 81.0947 112.142 80.3136L99.4142 67.5857ZM100 98.9999V68.9999H96V98.9999H100Z" fill="#C7C7CD"/>
</svg>
