<svg width="78" height="85" viewBox="0 0 78 85" fill="none" xmlns="http://www.w3.org/2000/svg">
<path d="M41.0468 26.8313C41.0468 26.8313 51.6872 16.1909 57.0074 21.5111C62.3276 26.8313 60.5542 33.9249 51.6872 41.0185C42.8202 48.1121 37.5 49.8855 33.9532 42.7919M33.9532 55.2057C33.9532 55.2057 23.3128 65.8461 17.9926 60.5259C12.6724 55.2057 14.4458 48.1121 23.3128 41.0185C32.1798 33.9249 37.5 32.1515 41.0468 39.2451" stroke="#F5F5F5" stroke-width="4.98443" stroke-linecap="round" stroke-linejoin="round"/>
<path d="M1 17.9423L40.1051 1L77 17.9423V65.6887L40.1051 84L1 65.6887V17.9423Z" fill="#B4A1BB" fill-opacity="0.17"/>
<path d="M1 17.9423L40.1051 1L77 17.9423M1 17.9423L40.1051 36.2536M1 17.9423V65.6887L40.1051 84M77 17.9423L40.1051 36.2536M77 17.9423V65.6887L40.1051 84M40.1051 36.2536V84" stroke="#E220CF" stroke-opacity="0.9"/>
</svg>
