<svg width="78" height="85" viewBox="0 0 78 85" fill="none" xmlns="http://www.w3.org/2000/svg">
<rect x="26.5" y="18.5" width="33.9183" height="48.3077" fill="white" stroke="black"/>
<path d="M23 16.4V21.9L26.1429 23H34V19.7V16.4L32.4286 13.1L29.2857 12L25.619 13.1L23 16.4Z" fill="white"/>
<path d="M39 23H18V36.1429L19.1667 39H39V23Z" fill="white"/>
<path d="M28.7608 29L28.778 29.0002L28.7952 29C28.9601 28.9981 29.1194 29.0461 29.2514 29.1341C29.383 29.2218 29.4796 29.344 29.5329 29.4807C29.5862 29.617 29.5952 29.7647 29.5599 29.9052C29.5244 30.0459 29.4448 30.177 29.3269 30.2786L28.8058 30.7274V31.4152V33.4919C28.8041 33.4933 28.8014 33.495 28.7976 33.4965C28.7921 33.4987 28.7855 33.5002 28.778 33.5002C28.7705 33.5002 28.7638 33.4987 28.7584 33.4965C28.7546 33.495 28.7519 33.4933 28.7502 33.4919V31.4152V30.7274L28.2291 30.2786C28.1111 30.177 28.0315 30.0459 27.9961 29.9052C27.9607 29.7647 27.9698 29.617 28.023 29.4807C28.0764 29.344 28.173 29.2218 28.3046 29.1341C28.4365 29.0461 28.5958 28.9981 28.7608 29ZM34.9169 21.5001V23.0001L21.139 39.5002C20.3125 39.5002 19.5252 39.1776 18.949 38.6119C18.3737 38.047 18.0557 37.2869 18.0557 36.5002V26.0001C18.0557 25.2134 18.3737 24.4533 18.949 23.8885C19.5252 23.3227 20.3125 23.0001 21.139 23.0001H22.639V21.5001V18.5001C22.639 16.9177 23.279 15.3945 24.4273 14.2671C25.5766 13.1387 27.141 12.5 28.778 12.5C30.4149 12.5 31.9794 13.1387 33.1287 14.2671C34.277 15.3945 34.9169 16.9177 34.9169 18.5001V21.5001ZM33.3614 23.0001H34.8614V21.5001V18.5001C34.8614 16.8998 34.2136 15.3707 33.0698 14.2477C31.9269 13.1256 30.3826 12.5 28.778 12.5C27.1734 12.5 25.629 13.1256 24.4862 14.2477C23.3424 15.3707 22.6946 16.8998 22.6946 18.5001V21.5001V23.0001H24.1946H33.3614Z" fill="white" stroke="black" stroke-width="3"/>
<path d="M39.2383 25.1953H56.4096" stroke="black" stroke-width="2"/>
<path d="M40.7734 30.2793H47.7763M40.7734 33.5409H47.7763M40.7734 36.6106H47.7763" stroke="black"/>
<path d="M49.4072 30.2793H56.4101M49.4072 33.5409H56.4101M49.4072 36.6106H56.4101" stroke="black"/>
<path d="M28.1104 42.75H35.1132M28.1104 46.0116H35.1132M28.1104 49.0813H35.1132" stroke="black"/>
<path d="M28.1104 52.9189H35.1132M28.1104 56.1805H35.1132M28.1104 59.2503H35.1132" stroke="black"/>
<path d="M35.0176 42.75H42.0204M35.0176 46.0116H42.0204M35.0176 49.0813H42.0204" stroke="black"/>
<path d="M35.0176 52.918H42.0204M35.0176 56.1796H42.0204M35.0176 59.2493H42.0204" stroke="black"/>
<path d="M42.8838 42.75H49.8866M42.8838 46.0116H49.8866M42.8838 49.0813H49.8866" stroke="black"/>
<path d="M42.8838 52.9189H49.8866M42.8838 56.1805H49.8866M42.8838 59.2503H49.8866" stroke="black"/>
<path d="M49.79 42.75H56.7929M49.79 46.0116H56.7929M49.79 49.0813H56.7929" stroke="black"/>
<path d="M49.79 52.9189H56.7929M49.79 56.1805H56.7929M49.79 59.2503H56.7929" stroke="black"/>
<path d="M1 17.9423L40.1051 1L77 17.9423V65.6887L40.1051 84L1 65.6887V17.9423Z" fill="#B4A1BB" fill-opacity="0.17"/>
<path d="M1 17.9423L40.1051 1L77 17.9423M1 17.9423L40.1051 36.2536M1 17.9423V65.6887L40.1051 84M77 17.9423L40.1051 36.2536M77 17.9423V65.6887L40.1051 84M40.1051 36.2536V84" stroke="#E220CF" stroke-opacity="0.9"/>
</svg>
