<svg width="664" height="455" viewBox="0 0 664 455" fill="none" xmlns="http://www.w3.org/2000/svg">
<path d="M225.469 40.3645L248.596 51.0135L257.743 32.1418L273.341 39.3237L283.758 17.8308" stroke="#613D5D" stroke-width="2"/>
<path d="M61.8886 369.892C57.3567 393.454 57.6669 407.52 61.8886 433.666H633.528C644.93 403.379 640.666 416.852 654.347 355.977C668.028 295.102 642.207 249.463 597.838 220.311L597.463 220.085C583.17 211.447 574.61 206.274 553.225 202.338C545.453 172.191 533.957 148.833 510.396 133.346C433.21 87.1073 372.866 96.7991 262.349 172.77C236.123 197.695 222.83 212.482 207.029 243.502C185.51 246.749 173.465 248.831 152.304 258.576C101.048 292.407 80.4679 316.263 61.8886 369.892Z" fill="#F3E9F3" stroke="#1B1B1B" stroke-width="2"/>
<rect x="49.8975" y="415.615" width="612.873" height="38.4243" fill="white" stroke="black"/>
<path d="M614.493 435.406V424.97C616.772 425.883 618.273 425.968 621.631 424.97C626.338 422.674 628.405 420.729 631.149 416.274C632.816 409.627 632.625 406.178 631.149 400.04C629.282 395.151 626.893 393.001 621.631 389.604C618.845 388.999 617.278 388.838 614.493 389.604V379.748C618.032 379.227 620.257 379.256 624.605 379.748C633.687 384.318 637.543 387.834 641.261 396.562C643.825 404.392 643.323 409.383 641.261 418.593C638.595 427.149 625.844 435.538 621.631 435.406C617.418 435.274 617.278 435.542 614.493 435.406Z" fill="white" stroke="#0A040C"/>
<path d="M57.1296 229.588C73.7465 315.43 88.3916 352.66 118.993 409.897H193.347C181.109 351.276 169.133 321.481 142.786 271.332L134.459 278.869V245.242C121.168 211.236 110.342 194.163 87.4663 165.814L78.5437 179.728V155.958C58.3046 135.329 45.3511 127.038 18.4651 118.853C36.4995 154.344 44.7243 175.155 53.5605 215.094L66.0521 226.69L57.1296 229.588Z" fill="#B4A1BB" stroke="#1B1B1B" stroke-width="2"/>
<path d="M98.1741 411.056H132.675H179.667C164.277 378.755 153.482 366.215 132.675 347.862L128.511 358.297L119.588 335.687C98.9884 316.441 87.1208 309.987 65.458 304.379L62.4838 318.873L54.7509 302.06C32.6776 299.403 21.1733 300.95 3 309.017C24.9625 322.326 36.1343 333.624 54.7509 358.297H65.458L60.1044 364.095C74.5892 385.663 82.8818 396.398 98.1741 411.056Z" fill="#B4A1BB" stroke="#1B1B1B" stroke-width="2"/>
<path d="M273.652 173.351C274.608 159.376 274.386 152.573 273.652 140.884L317.67 151.32L321.834 175.67L324.808 190.744C328.5 192.001 331.078 192.296 336.11 192.483L328.377 222.051H286.144L257.592 189.005H270.083C272.118 184.454 273.284 181.974 273.652 173.351Z" fill="white" stroke="#1B1B1B"/>
<path d="M337.299 95.6619L339.084 92.1833L330.161 80.5879H293.876C292.488 90.2507 289.831 110.04 290.307 111.895C290.783 113.751 295.264 136.246 297.445 147.261H339.084L337.299 115.374V95.6619Z" fill="white" stroke="#1B1B1B"/>
<path d="M328.971 107.258L335.514 110.157" stroke="#1B1B1B" stroke-width="3"/>
<path d="M300.42 430.769H286.738L295.661 393.084H299.23H302.204V402.36C302.204 403.752 301.014 402.94 300.42 402.36V430.769Z" fill="white" stroke="#1B1B1B"/>
<path d="M286.738 430.768H293.281L299.23 391.924H295.066L286.738 430.768Z" fill="#0A040C" stroke="#1B1B1B"/>
<path d="M309.936 401.779L331.35 406.417L324.212 430.188H299.229L301.013 401.779H309.936Z" fill="white" stroke="#1B1B1B"/>
<path d="M559.173 444.683V369.893H613.898V444.683C595.154 448.885 583.424 449.322 559.173 444.683Z" fill="white" stroke="#1B1B1B"/>
<path d="M613.9 444.683C613.354 452.132 558.668 448.557 559.175 444.103C559.681 439.649 559.77 440.045 559.77 440.045C559.77 440.045 567.893 440.789 574.641 439.465C595.759 434.809 603.927 420.621 613.9 380.908C613.9 380.908 614.445 437.234 613.9 444.683Z" fill="#613D5D" stroke="#1B1B1B"/>
<path d="M568.095 365.834C564.526 366.068 558.766 368.027 559.173 369.893C561.399 372.073 563.964 372.983 571.664 373.951C582.806 374.579 589.072 374.524 600.217 373.951C609.993 373.142 612.767 372.174 613.898 369.893C613.578 368.025 611.518 366.414 603.191 365.834C594.864 365.254 571.665 365.601 568.095 365.834Z" fill="#4A3B50" stroke="black"/>
<path d="M509.802 173.93L498.5 201.179L525.862 244.082C530.552 223.365 532.158 210.361 538.949 192.483C542.214 185.893 546.091 183.29 554.384 181.467C557.689 180.332 560.921 177.988 563.902 174.51C566.883 171.032 579.777 150.413 579.993 144.362C580.208 138.311 578.729 132.999 572.26 142.043C565.791 151.087 562.742 154.798 562.742 154.798C559.312 157.731 556.523 158.477 550.251 158.277C550.251 158.277 537.184 157.937 530.621 158.277C524.058 158.616 515.281 162.331 509.802 173.93Z" fill="white" stroke="black"/>
<path d="M537.759 212.196C538.949 213.355 536.57 231.328 536.57 231.908V232.488L503.259 183.787L508.017 177.989C517.535 189.005 536.808 211.268 537.759 212.196Z" fill="white" stroke="black"/>
<path d="M334.92 117.695C334.919 121.173 335.07 123.916 334.92 125.232C334.769 126.547 329.535 127.156 328.971 125.232C328.408 123.307 328.376 118.854 328.376 117.115C328.376 115.376 334.92 114.216 334.92 117.695Z" fill="#1B1B1B" stroke="#1B1B1B"/>
<path d="M305.276 117.838C305.204 121.896 305.097 121.758 305.276 124.795C305.455 127.831 311.803 128.524 311.819 124.795C311.836 121.066 311.819 121.896 311.819 117.838C311.819 113.779 305.348 113.78 305.276 117.838Z" fill="#1B1B1B" stroke="#1B1B1B"/>
<path d="M303.988 110.156L309.342 106.678" stroke="#1B1B1B" stroke-width="2"/>
<path d="M289.118 154.799C278.905 148.474 274.358 144.78 267.704 137.985" stroke="#1B1B1B" stroke-width="2"/>
<path d="M338.488 94.5029C336.868 113.64 338.488 133.927 338.488 133.927" stroke="#1B1B1B"/>
<path d="M266.513 136.825L288.522 143.782V153.638C297.185 172.603 309.936 177.989 322.427 180.308C334.919 182.627 346.815 177.989 350.98 166.973C355.144 155.957 346.816 135.665 342.057 132.767C337.298 129.868 331.919 127.858 322.427 132.767C320.444 133.83 318.263 134.506 311.72 139.144C305.177 143.782 299.138 138.372 296.849 132.767C293.01 122.871 292.855 115.974 293.28 103.198C294.3 97.1477 296.849 92.7625 305.177 95.0816C313.505 97.4006 312.022 97.2751 315.289 95.0816C320.072 89.9921 323.725 89.8663 331.35 92.7625C355.056 96.1078 358.984 89.393 358.712 70.7313L350.98 63.1943L342.057 52.1786L331.35 39.4237C323.182 34.8675 318.077 34.5685 307.556 39.4237L296.849 49.8596L284.953 52.1786H266.513C249.847 55.4708 247.701 62.9202 254.616 84.6457C257.92 91.4288 257.35 94.4058 254.616 99.1399C254.616 99.1399 252.832 100.879 245.098 110.735C237.365 120.591 240.122 129.923 254.616 136.825C260.328 138.798 262.762 138.497 266.513 136.825Z" fill="#4A3B50" stroke="#1B1B1B"/>
<path d="M290.901 127.549C290.901 127.549 289.116 153.059 288.522 153.638C287.927 154.218 273.056 143.202 265.323 131.607C257.59 120.012 267.107 109.576 275.435 114.214C283.764 118.852 286.028 122.244 290.901 127.549Z" fill="white" stroke="white"/>
<path d="M309.936 402.36L330.755 405.839H365.851L351.575 324.091C344.884 285.521 340.466 264.986 332.54 228.429L321.833 238.865L308.746 223.211L301.013 244.083L276.625 222.052L309.936 402.36Z" fill="white" stroke="white"/>
<path d="M412.248 206.978L353.359 193.643L346.816 223.211L353.359 229.589L349.79 288.146L346.816 290.465L353.359 327.57L378.937 422.072H483.629L541.923 240.605L500.284 182.048L437.826 302.06L412.248 206.978Z" fill="#613D5D" stroke="#0A040C" stroke-width="1.5"/>
<path d="M359.902 298.001L323.022 445.262H513.965L549.061 298.001H359.902Z" fill="#B4A1BB" stroke="white" stroke-width="2"/>
<path d="M415.818 333.367H386.671V364.095L415.818 333.367Z" fill="#613D5D" stroke="white" stroke-width="2"/>
<path d="M248.073 445.843H324.808L328.377 430.769C328.377 430.769 259.97 432.508 254.617 432.508C249.263 432.508 248.615 435.661 248.073 439.465V445.843Z" fill="#B4A1BB" stroke="white"/>
<path d="M323.022 446.422L361.092 299.161" stroke="white" stroke-width="4"/>
<path d="M403.92 400.041L451.507 346.702L463.999 395.403L403.92 400.041Z" fill="#613D5D"/>
<path d="M490.172 373.371L474.706 328.149H516.94L490.172 373.371Z" fill="#613D5D"/>
<path d="M403.92 400.041L451.507 346.702L463.999 395.403L403.92 400.041Z" stroke="white" stroke-width="2"/>
<path d="M490.172 373.371L474.706 328.149H516.94L490.172 373.371Z" stroke="white" stroke-width="2"/>
<path d="M391.429 240.604L383.101 257.997" stroke="white" stroke-width="2"/>
<path d="M396.188 281.768V279.449L359.308 277.71L361.092 282.928L396.188 281.768Z" fill="white" stroke="white"/>
<path d="M353.359 194.222L323.022 191.323L332.54 228.428L348.6 288.724L352.17 230.168L345.031 223.79L353.359 194.222Z" fill="#613D5D" stroke="#0A040C" stroke-width="2"/>
<path d="M306.368 214.515C296.255 215.674 284.415 204.879 272.462 194.802L277.221 220.312L301.014 242.923L308.747 222.631L322.428 237.705L332.541 227.849L322.428 192.483C319.81 203.2 316.48 213.355 306.368 214.515Z" fill="white" stroke="#0A040C" stroke-width="2"/>
<path d="M244.504 187.266H271.866C271.358 192.822 274.531 214.079 276.03 222.052C276.573 224.937 285.151 278.096 290.306 304.379L261.159 228.429L268.297 218.573L244.504 187.266Z" fill="#613D5D" stroke="white" stroke-width="2"/>
<path d="M133.27 410.477C141.06 316.98 170.15 196.542 187.4 189.005C204.65 181.468 245.099 189.005 245.099 189.005L268.893 218.573L262.35 228.429L290.307 302.06L310.532 400.621H302.204V391.924H295.066L284.359 441.784L159.443 431.348C140.055 428.889 137.556 422.313 133.27 410.477Z" fill="#613D5D"/>
<path d="M268.893 189.005C262.35 180.888 245.099 189.005 245.099 189.005M245.099 189.005C245.099 189.005 204.65 181.468 187.4 189.005C170.15 196.542 141.06 316.98 133.27 410.477C137.556 422.313 140.055 428.889 159.443 431.348L284.359 441.784L295.066 391.924H302.204V400.621H310.532L290.307 302.06L262.35 228.429L268.893 218.573L245.099 189.005Z" stroke="black"/>
<path d="M231.417 242.344C239.15 281.768 233.342 320.064 221.9 379.749L300.418 383.228M217.736 379.749C214.683 382.836 212.112 383.475 206.434 383.228" stroke="white" stroke-width="1.5"/>
<path d="M551.44 37.1046C516.625 34.1593 497 34.172 462.214 37.1046C466.314 81.7894 465.673 105.813 462.214 147.84C489.083 145.386 508.411 145.276 551.44 147.84C554.43 96.9269 554.621 72.2665 551.44 37.1046Z" fill="#F2E9F3" stroke="#0A040C" stroke-width="1.5"/>
<path d="M472.608 50.6319V61.541H470.301V50.6319H472.608ZM483.63 50.6319V61.541H481.638L476.892 54.6749H476.812V61.541H474.506V50.6319H476.53L481.238 57.4927H481.334V50.6319H483.63ZM487.507 50.6319L490.143 58.9203H490.245L492.887 50.6319H495.443L491.683 61.541H488.711L484.945 50.6319H487.507ZM506.166 56.0865C506.166 57.2761 505.941 58.2882 505.49 59.1227C505.042 59.9572 504.431 60.5946 503.657 61.035C502.887 61.4718 502.02 61.6902 501.058 61.6902C500.088 61.6902 499.218 61.47 498.448 61.0297C497.677 60.5893 497.068 59.9519 496.621 59.1174C496.173 58.2828 495.95 57.2725 495.95 56.0865C495.95 54.8968 496.173 53.8848 496.621 53.0502C497.068 52.2157 497.677 51.5801 498.448 51.1433C499.218 50.7029 500.088 50.4828 501.058 50.4828C502.02 50.4828 502.887 50.7029 503.657 51.1433C504.431 51.5801 505.042 52.2157 505.49 53.0502C505.941 53.8848 506.166 54.8968 506.166 56.0865ZM503.828 56.0865C503.828 55.3159 503.712 54.666 503.481 54.1369C503.254 53.6078 502.933 53.2065 502.517 52.9331C502.102 52.6596 501.615 52.5229 501.058 52.5229C500.5 52.5229 500.014 52.6596 499.598 52.9331C499.183 53.2065 498.86 53.6078 498.629 54.1369C498.402 54.666 498.288 55.3159 498.288 56.0865C498.288 56.8571 498.402 57.5069 498.629 58.036C498.86 58.5652 499.183 58.9664 499.598 59.2399C500.014 59.5133 500.5 59.65 501.058 59.65C501.615 59.65 502.102 59.5133 502.517 59.2399C502.933 58.9664 503.254 58.5652 503.481 58.036C503.712 57.5069 503.828 56.8571 503.828 56.0865ZM510.181 50.6319V61.541H507.875V50.6319H510.181ZM521.704 54.4512H519.371C519.328 54.1493 519.241 53.8812 519.11 53.6468C518.979 53.4089 518.81 53.2065 518.604 53.0396C518.398 52.8727 518.16 52.7449 517.89 52.6561C517.624 52.5673 517.334 52.5229 517.022 52.5229C516.457 52.5229 515.965 52.6632 515.546 52.9437C515.127 53.2207 514.802 53.6255 514.572 54.1582C514.341 54.6873 514.225 55.3301 514.225 56.0865C514.225 56.8642 514.341 57.5176 514.572 58.0467C514.806 58.5758 515.133 58.9753 515.552 59.2452C515.971 59.5151 516.456 59.65 517.006 59.65C517.315 59.65 517.601 59.6092 517.864 59.5275C518.13 59.4458 518.366 59.3269 518.572 59.1706C518.778 59.0108 518.948 58.8173 519.083 58.59C519.222 58.3627 519.318 58.1035 519.371 57.8123L521.704 57.823C521.644 58.3237 521.493 58.8066 521.251 59.2718C521.013 59.7335 520.692 60.1472 520.287 60.513C519.886 60.8752 519.407 61.1628 518.849 61.3759C518.295 61.5854 517.668 61.6902 516.969 61.6902C515.996 61.6902 515.126 61.47 514.359 61.0297C513.595 60.5893 512.991 59.9519 512.548 59.1174C512.107 58.2828 511.887 57.2725 511.887 56.0865C511.887 54.8968 512.111 53.8848 512.558 53.0502C513.006 52.2157 513.613 51.5801 514.38 51.1433C515.147 50.7029 516.01 50.4828 516.969 50.4828C517.601 50.4828 518.187 50.5716 518.726 50.7491C519.27 50.9267 519.751 51.1859 520.17 51.5268C520.589 51.8642 520.93 52.2779 521.193 52.7679C521.459 53.258 521.63 53.8191 521.704 54.4512ZM523.358 61.541V50.6319H530.709V52.5336H525.665V55.133H530.331V57.0346H525.665V59.6394H530.73V61.541H523.358Z" fill="black"/>
<g clip-path="url(#clip0_51_268)">
<rect width="158.229" height="37.9065" transform="matrix(0.945964 -0.324273 0.339425 0.940633 426.744 110.445)" fill="#E60027"/>
<path d="M465.886 113.649C466.348 115 466.484 116.232 466.293 117.346C466.107 118.459 465.657 119.409 464.944 120.195C464.234 120.977 463.329 121.545 462.231 121.902C461.124 122.261 460.045 122.333 458.994 122.119C457.943 121.904 457 121.406 456.165 120.625C455.33 119.843 454.682 118.78 454.221 117.433C453.759 116.083 453.622 114.851 453.808 113.738C453.995 112.626 454.443 111.678 455.154 110.897C455.862 110.112 456.77 109.54 457.877 109.181C458.976 108.824 460.051 108.753 461.102 108.968C462.155 109.177 463.099 109.672 463.934 110.454C464.774 111.234 465.424 112.299 465.886 113.649ZM463.216 114.515C462.917 113.641 462.533 112.946 462.064 112.431C461.599 111.914 461.076 111.578 460.495 111.422C459.915 111.265 459.306 111.29 458.67 111.497C458.033 111.703 457.531 112.038 457.162 112.503C456.794 112.967 456.581 113.542 456.523 114.228C456.469 114.913 456.592 115.693 456.891 116.567C457.191 117.442 457.573 118.137 458.038 118.654C458.507 119.169 459.032 119.505 459.612 119.661C460.193 119.818 460.802 119.793 461.438 119.586C462.075 119.38 462.577 119.044 462.945 118.58C463.313 118.116 463.524 117.541 463.578 116.857C463.636 116.171 463.516 115.39 463.216 114.515ZM467.266 106.323L473.496 114.754L473.612 114.717L473.409 104.331L476.328 103.384L476.272 117.159L472.878 118.26L464.341 107.272L467.266 106.323ZM482.065 115.28L477.827 102.897L486.22 100.175L486.958 102.333L481.199 104.202L482.209 107.152L487.536 105.424L488.275 107.582L482.947 109.311L483.959 112.267L489.743 110.391L490.482 112.549L482.065 115.28ZM492.551 111.878L488.313 99.4958L493.227 97.9017C494.168 97.5965 495.028 97.5034 495.808 97.6223C496.59 97.7358 497.259 98.0403 497.816 98.5358C498.376 99.026 498.796 99.6802 499.076 100.498C499.357 101.321 499.421 102.086 499.267 102.794C499.111 103.498 498.749 104.118 498.179 104.652C497.614 105.184 496.853 105.606 495.896 105.916L492.606 106.984L491.886 104.88L494.75 103.95C495.253 103.787 495.647 103.583 495.933 103.338C496.218 103.094 496.395 102.808 496.464 102.481C496.536 102.153 496.503 101.785 496.363 101.378C496.223 100.967 496.021 100.648 495.758 100.419C495.499 100.19 495.177 100.057 494.791 100.021C494.407 99.9798 493.962 100.041 493.455 100.206L491.679 100.782L495.184 111.024L492.551 111.878ZM497.349 104.061L502.373 108.692L499.466 109.635L494.509 104.983L497.349 104.061ZM508.205 106.8L503.79 108.232L499.553 95.8499L504.004 94.4058C505.257 93.9994 506.421 93.8974 507.494 94.0999C508.567 94.2983 509.504 94.7802 510.307 95.5454C511.113 96.3093 511.736 97.3341 512.176 98.6199C512.618 99.9097 512.752 101.098 512.579 102.184C512.409 103.269 511.953 104.207 511.211 104.999C510.472 105.789 509.47 106.39 508.205 106.8ZM505.656 105.135L507.328 104.592C508.107 104.34 508.715 103.99 509.152 103.544C509.592 103.092 509.847 102.533 509.916 101.866C509.987 101.193 509.865 100.395 509.549 99.4722C509.236 98.5572 508.844 97.8536 508.374 97.3613C507.908 96.8677 507.362 96.5699 506.737 96.4682C506.112 96.3664 505.411 96.4417 504.632 96.6943L502.954 97.2388L505.656 105.135ZM519.706 89.3124L522.339 88.4581L525.091 96.4994C525.4 97.4023 525.454 98.2627 525.252 99.0806C525.054 99.8971 524.632 100.62 523.987 101.251C523.341 101.877 522.503 102.357 521.474 102.691C520.44 103.026 519.471 103.132 518.569 103.008C517.665 102.881 516.882 102.548 516.22 102.01C515.559 101.473 515.073 100.752 514.764 99.8493L512.013 91.808L514.646 90.9538L517.321 98.7714C517.483 99.243 517.73 99.6286 518.062 99.9283C518.398 100.227 518.793 100.419 519.246 100.505C519.699 100.591 520.178 100.552 520.685 100.387C521.196 100.222 521.604 99.9727 521.909 99.6408C522.219 99.3075 522.414 98.924 522.495 98.4901C522.581 98.0549 522.543 97.6015 522.381 97.1299L519.706 89.3124ZM528.744 100.138L524.506 87.7553L532.899 85.0327L533.637 87.1912L527.878 89.0595L528.888 92.01L534.215 90.2817L534.954 92.4402L529.626 94.1684L530.638 97.125L536.422 95.2488L537.161 97.4072L528.744 100.138Z" fill="#F2E9F3"/>
</g>
<ellipse cx="312.91" cy="252.2" rx="2.97419" ry="2.89884" fill="#0A040C"/>
<ellipse cx="320.049" cy="291.623" rx="2.97419" ry="2.89884" fill="#0A040C"/>
<ellipse cx="325.997" cy="331.048" rx="2.97419" ry="2.89884" fill="#0A040C"/>
<defs>
<clipPath id="clip0_51_268">
<rect width="158.229" height="37.9065" fill="white" transform="matrix(0.945964 -0.324273 0.339425 0.940633 426.744 110.445)"/>
</clipPath>
</defs>
</svg>
